# Exported from Wings 3D 1.4.1.2011-09-24---17-38.mlab
mtllib ./jaguar_company_invisible_tracker.mtl
o jaguar_company_invisible_tracker
#3 vertices, 1 faces
v -5.0000000e-4 -3.3333333e-4 0.0000000e+0
v -2.0017407e-20 6.6666667e-4 0.0000000e+0
v 5.0000000e-4 -3.3333333e-4 0.0000000e+0
vt 0.0000000e+0 0.0000000e+0
vt 0.50000000 1.00000000
vt 1.00000000 0.0000000e+0
vn 0.0000000e+0 0.0000000e+0 1.00000000
vn 0.0000000e+0 0.0000000e+0 1.00000000
vn 0.0000000e+0 0.0000000e+0 1.00000000
g jaguar_company_invisible_tracker_jaguar_company_invisible_tracker
usemtl jaguar_company_invisible_tracker
s 1
f 1/1/1 3/3/3 2/2/2
